<svg width="120" height="120" viewBox="0 0 120 120" fill="none" xmlns="http://www.w3.org/2000/svg">
<mask id="mask0_1_40" style="mask-type:alpha" maskUnits="userSpaceOnUse" x="0" y="0" width="120" height="120">
<circle cx="60" cy="60" r="60" fill="#C4C4C4"/>
</mask>
<g mask="url(#mask0_1_40)">
<circle cx="60" cy="60" r="60" fill="#EEEEEE"/>
<path d="M60 18.3333C37 18.3333 18.3333 37 18.3333 60C18.3333 83 37 101.667 60 101.667C83 101.667 101.667 83 101.667 60C101.667 37 83 18.3333 60 18.3333ZM60 30.8333C66.9167 30.8333 72.5 36.4167 72.5 43.3333C72.5 50.25 66.9167 55.8333 60 55.8333C53.0833 55.8333 47.5 50.25 47.5 43.3333C47.5 36.4167 53.0833 30.8333 60 30.8333ZM60 90C49.5833 90 40.375 84.6667 35 76.5833C35.125 68.2917 51.6667 63.75 60 63.75C68.2917 63.75 84.875 68.2917 85 76.5833C79.625 84.6667 70.4167 90 60 90Z" fill="white"/>
</g>
</svg>
